<svg width="17" height="16" viewBox="0 0 17 16" fill="none" xmlns="http://www.w3.org/2000/svg">
<path fill-rule="evenodd" clip-rule="evenodd" d="M15.8402 16H9.71294C9.3632 16 9.07935 15.7161 9.07935 15.3664C9.07935 15.0166 9.3632 14.7328 9.71294 14.7328H15.8402C16.19 14.7328 16.4738 15.0166 16.4738 15.3664C16.4738 15.7161 16.19 16 15.8402 16Z" fill="#095D4C"/>
<mask id="mask0" mask-type="alpha" maskUnits="userSpaceOnUse" x="0" y="0" width="15" height="16">
<path fill-rule="evenodd" clip-rule="evenodd" d="M0 0H14.514V16H0V0Z" fill="white"/>
</mask>
<g mask="url(#mask0)">
<path fill-rule="evenodd" clip-rule="evenodd" d="M9.38575 1.70365L1.43202 11.6511C1.28756 11.8319 1.23434 12.065 1.28756 12.2889L1.86287 14.7261L4.43019 14.694C4.67434 14.6915 4.8999 14.5825 5.04943 14.3967C7.76713 10.9964 12.9482 4.51343 13.0952 4.32335C13.2338 4.09864 13.2879 3.78099 13.2152 3.47518C13.1409 3.16176 12.9457 2.89565 12.6644 2.72585C12.6044 2.68445 11.1809 1.57946 11.137 1.54483C10.6014 1.11567 9.81998 1.19001 9.38575 1.70365ZM1.36288 16.0001C1.06974 16.0001 0.814613 15.799 0.746184 15.5126L0.0542985 12.5804C-0.0884716 11.973 0.0534537 11.3461 0.442903 10.8595L8.40086 0.906161C8.40424 0.902782 8.40677 0.898558 8.41015 0.895179C9.28282 -0.148141 10.8609 -0.301893 11.9253 0.552193C11.9676 0.58514 13.3809 1.68337 13.3809 1.68337C13.8945 1.98919 14.2958 2.53577 14.4479 3.18288C14.5991 3.82323 14.4893 4.48386 14.137 5.04227C14.1108 5.08366 14.088 5.11915 6.03882 15.1891C5.65105 15.6723 5.06984 15.9536 4.44553 15.9612L1.37133 16.0001H1.36288Z" fill="#095D4C"/>
</g>
<path fill-rule="evenodd" clip-rule="evenodd" d="M12.0155 7.3367C11.8803 7.3367 11.7451 7.29362 11.6294 7.20576L7.02359 3.66777C6.7465 3.45488 6.69412 3.05783 6.90701 2.77904C7.12074 2.50195 7.5178 2.45042 7.79573 2.66331L12.4024 6.20046C12.6795 6.41335 12.7319 6.81124 12.5181 7.08918C12.3939 7.25138 12.2056 7.3367 12.0155 7.3367Z" fill="#095D4C"/>
</svg>
