<svg width="16" height="16" viewBox="0 0 16 16" fill="none" xmlns="http://www.w3.org/2000/svg">
<path fill-rule="evenodd" clip-rule="evenodd" d="M8 1.2C4.2504 1.2 1.2 4.2504 1.2 8C1.2 11.7496 4.2504 14.8 8 14.8C11.7496 14.8 14.8 11.7496 14.8 8C14.8 4.2504 11.7496 1.2 8 1.2ZM8 16C3.5888 16 0 12.4112 0 8C0 3.5888 3.5888 0 8 0C12.4112 0 16 3.5888 16 8C16 12.4112 12.4112 16 8 16Z" fill="#130F26"/>
<path fill-rule="evenodd" clip-rule="evenodd" d="M7.99526 9.09848C7.66406 9.09848 7.39526 8.82968 7.39526 8.49848V4.96328C7.39526 4.63208 7.66406 4.36328 7.99526 4.36328C8.32646 4.36328 8.59526 4.63208 8.59526 4.96328V8.49848C8.59526 8.82968 8.32646 9.09848 7.99526 9.09848Z" fill="#130F26"/>
<path fill-rule="evenodd" clip-rule="evenodd" d="M8.0031 11.8367C7.5607 11.8367 7.1991 11.4791 7.1991 11.0367C7.1991 10.5943 7.5535 10.2367 7.9951 10.2367H8.0031C8.4455 10.2367 8.8031 10.5943 8.8031 11.0367C8.8031 11.4791 8.4455 11.8367 8.0031 11.8367Z" fill="#130F26"/>
</svg>
