<svg width="22" height="22" viewBox="0 0 22 22" fill="none" xmlns="http://www.w3.org/2000/svg">
<path fill-rule="evenodd" clip-rule="evenodd" d="M5.43761 6.12109C5.43761 5.70709 5.77361 5.37109 6.18761 5.37109L13.0476 5.37109C13.4616 5.37109 13.7976 5.70709 13.7976 6.12109C13.7976 6.53509 13.4616 6.87109 13.0476 6.87109L6.18761 6.87109C5.77361 6.87109 5.43761 6.53509 5.43761 6.12109Z" fill="#130F26"/>
<path fill-rule="evenodd" clip-rule="evenodd" d="M5.43854 10.7881C5.43854 10.3741 5.77454 10.0381 6.18854 10.0381L16.3315 10.0381C16.7455 10.0381 17.0815 10.3741 17.0815 10.7881C17.0815 11.2021 16.7455 11.5381 16.3315 11.5381L6.18854 11.5381C5.77454 11.5381 5.43854 11.2021 5.43854 10.7881Z" fill="#130F26"/>
<path fill-rule="evenodd" clip-rule="evenodd" d="M5.43861 15.3784C5.43861 14.9644 5.77461 14.6284 6.18861 14.6284L9.42261 14.6284C9.83661 14.6284 10.1726 14.9644 10.1726 15.3784C10.1726 15.7924 9.83661 16.1284 9.42261 16.1284L6.18861 16.1284C5.77461 16.1284 5.43861 15.7924 5.43861 15.3784Z" fill="#130F26"/>
<path fill-rule="evenodd" clip-rule="evenodd" d="M20.5 6.064C20.5 3.292 18.603 1.5 15.665 1.5L6.835 1.5C3.897 1.5 2 3.292 2 6.064L2 15.436C2 18.209 3.897 20 6.835 20L15.665 20C18.603 20 20.5 18.209 20.5 15.436L20.5 6.064ZM0.499999 15.436L0.5 6.064C0.5 2.437 3.046 -8.28506e-07 6.835 -6.62883e-07L15.665 -2.76912e-07C19.454 -1.11289e-07 22 2.437 22 6.064L22 15.436C22 19.063 19.454 21.5 15.665 21.5L6.835 21.5C3.046 21.5 0.499999 19.063 0.499999 15.436Z" fill="#130F26"/>
</svg>
