<svg width="14" height="14" viewBox="0 0 14 14" fill="none" xmlns="http://www.w3.org/2000/svg">
<path fill-rule="evenodd" clip-rule="evenodd" d="M1.57083 13.1511C1.16964 13.1511 0.768452 12.9985 0.463383 12.6914C-0.148846 12.0791 -0.148846 11.0887 0.463383 10.4765L10.4763 0.463505C11.0886 -0.148724 12.079 -0.148724 12.6912 0.463505C13.3035 1.07573 13.3035 2.06616 12.6912 2.67839L2.67827 12.6914C2.3732 12.9985 1.97201 13.1511 1.57083 13.1511" fill="#DC474F"/>
<path fill-rule="evenodd" clip-rule="evenodd" d="M11.5879 13.1572C11.1868 13.1572 10.7856 13.0046 10.4805 12.6975L0.459171 2.67406C-0.153057 2.06183 -0.153057 1.0714 0.459171 0.459171C1.07349 -0.153057 2.06392 -0.153057 2.67406 0.459171L12.6954 10.4826C13.3076 11.0948 13.3076 12.0852 12.6954 12.6975C12.3903 13.0046 11.987 13.1572 11.5879 13.1572" fill="#DC474F"/>
</svg>
