<svg width="17" height="19" viewBox="0 0 17 19" fill="none" xmlns="http://www.w3.org/2000/svg">
<path d="M15.2799 7.12006H1.68C1.30445 7.12006 1 7.4245 1 7.80005V17.32C1 17.6956 1.30445 18 1.68 18H15.2799C15.6555 18 15.9599 17.6956 15.9599 17.32V7.80005C15.9599 7.4245 15.6555 7.12006 15.2799 7.12006Z" stroke="#B2B2B2" stroke-linecap="round" stroke-linejoin="round"/>
<path d="M5.41992 7.11997V4.05999C5.41992 3.24843 5.74231 2.47011 6.31617 1.89625C6.89003 1.32239 7.66835 1 8.47991 1C9.29147 1 10.0698 1.32239 10.6436 1.89625C11.2175 2.47011 11.5399 3.24843 11.5399 4.05999V7.11997" stroke="#B2B2B2" stroke-linecap="round" stroke-linejoin="round"/>
<path d="M8.4802 13.58C9.04353 13.58 9.5002 13.1234 9.5002 12.56C9.5002 11.9967 9.04353 11.54 8.4802 11.54C7.91687 11.54 7.46021 11.9967 7.46021 12.56C7.46021 13.1234 7.91687 13.58 8.4802 13.58Z" fill="#B2B2B2"/>
</svg>
