<svg width="19" height="16" viewBox="0 0 19 16" fill="none" xmlns="http://www.w3.org/2000/svg">
<path fill-rule="evenodd" clip-rule="evenodd" d="M-4.37114e-08 1C-1.95827e-08 0.448 0.522487 -5.45409e-07 1.16627 -5.17269e-07L11.8337 -5.09792e-08C12.4775 -2.28387e-08 13 0.448 13 1C13 1.552 12.4775 2 11.8337 2L1.16627 2C0.522487 2 -6.78401e-08 1.552 -4.37114e-08 1Z" fill="#B9B9B9"/>
<path fill-rule="evenodd" clip-rule="evenodd" d="M-4.37114e-08 8C-1.95827e-08 7.448 0.548313 7 1.22391 7L17.7761 7C18.4517 7 19 7.448 19 8C19 8.552 18.4517 9 17.7761 9L1.22391 9C0.548313 9 -6.78401e-08 8.552 -4.37114e-08 8Z" fill="#B9B9B9"/>
<path fill-rule="evenodd" clip-rule="evenodd" d="M-4.37114e-08 15C-1.95827e-08 14.448 0.567808 14 1.26743 14L6.73257 14C7.43219 14 8 14.448 8 15C8 15.552 7.43219 16 6.73257 16L1.26743 16C0.567808 16 -6.78401e-08 15.552 -4.37114e-08 15Z" fill="#B9B9B9"/>
</svg>
