<svg width="24" height="27" viewBox="0 0 24 27" fill="none" xmlns="http://www.w3.org/2000/svg">
<mask id="mask0" mask-type="alpha" maskUnits="userSpaceOnUse" x="0" y="5" width="19" height="18">
<path fill-rule="evenodd" clip-rule="evenodd" d="M0 5H18.4969V22.348H0V5Z" fill="white"/>
</mask>
<g mask="url(#mask0)">
<path fill-rule="evenodd" clip-rule="evenodd" d="M9.24701 6.5C5.75201 6.5 3.31601 9.238 3.31601 11.695C3.31601 13.774 2.73901 14.735 2.22901 15.583C1.82001 16.264 1.49701 16.802 1.49701 17.971C1.66401 19.857 2.90901 20.848 9.24701 20.848C15.55 20.848 16.834 19.813 17 17.906C16.997 16.802 16.674 16.264 16.265 15.583C15.755 14.735 15.178 13.774 15.178 11.695C15.178 9.238 12.742 6.5 9.24701 6.5ZM9.24701 22.348C4.57101 22.348 0.345013 22.018 1.33547e-05 18.035C-0.00298665 16.387 0.500013 15.549 0.944013 14.811C1.39301 14.063 1.81601 13.358 1.81601 11.695C1.81601 8.462 4.80201 5 9.24701 5C13.692 5 16.678 8.462 16.678 11.695C16.678 13.358 17.101 14.063 17.55 14.811C17.994 15.549 18.497 16.387 18.497 17.971C18.148 22.018 13.923 22.348 9.24701 22.348Z" fill="#130F26"/>
</g>
<path fill-rule="evenodd" clip-rule="evenodd" d="M9.19827 26.5H9.19627C8.07527 26.499 7.01427 26.005 6.20927 25.108C5.93227 24.801 5.95727 24.326 6.26527 24.05C6.57327 23.772 7.04727 23.797 7.32427 24.106C7.84227 24.683 8.50727 25 9.19727 25H9.19827C9.89127 25 10.5593 24.683 11.0783 24.105C11.3563 23.798 11.8303 23.773 12.1373 24.05C12.4453 24.327 12.4703 24.802 12.1933 25.109C11.3853 26.006 10.3223 26.5 9.19827 26.5Z" fill="#130F26"/>
<circle cx="17" cy="7" r="6" fill="#095D4C" stroke="white" stroke-width="2"/>
</svg>
