<svg width="21" height="22" viewBox="0 0 21 22" fill="none" xmlns="http://www.w3.org/2000/svg">
<path d="M17.7188 1.31289C17.1967 1.31289 16.6959 1.52031 16.3267 1.88951C15.9575 2.25872 15.7501 2.75947 15.7501 3.28161C15.7501 3.80374 15.9575 4.3045 16.3267 4.6737C16.6959 5.04291 17.1967 5.25033 17.7188 5.25033C18.2409 5.25033 18.7417 5.04291 19.1109 4.6737C19.4801 4.3045 19.6875 3.80374 19.6875 3.28161C19.6875 2.75947 19.4801 2.25872 19.1109 1.88951C18.7417 1.52031 18.2409 1.31289 17.7188 1.31289ZM14.4376 3.28161C14.4375 2.51175 14.7081 1.76637 15.2021 1.17588C15.6961 0.585392 16.3819 0.187392 17.1397 0.0515163C17.8975 -0.0843599 18.6789 0.0505401 19.3472 0.432614C20.0156 0.814689 20.5283 1.41961 20.7957 2.14153C21.0631 2.86346 21.0682 3.65643 20.8099 4.38169C20.5517 5.10696 20.0467 5.71834 19.3833 6.10887C18.7198 6.49941 17.9402 6.64422 17.1808 6.51798C16.4213 6.39175 15.7305 6.00249 15.229 5.41832L6.41181 9.51326C6.61451 10.1556 6.61451 10.8448 6.41181 11.4872L15.229 15.5822C15.7591 14.9657 16.4991 14.568 17.3056 14.4661C18.1122 14.3642 18.9279 14.5653 19.5946 15.0305C20.2613 15.4957 20.7316 16.1919 20.9143 16.984C21.0969 17.7762 20.979 18.608 20.5834 19.3182C20.1878 20.0284 19.5426 20.5665 18.7728 20.8281C18.0031 21.0897 17.1637 21.0562 16.4172 20.7342C15.6707 20.4121 15.0704 19.8244 14.7325 19.085C14.3947 18.3455 14.3434 17.507 14.5885 16.7319L5.77132 12.637C5.33483 13.1456 4.75303 13.5084 4.10418 13.6765C3.45533 13.8447 2.77055 13.81 2.14197 13.5773C1.51339 13.3446 0.971156 12.925 0.588217 12.3748C0.205277 11.8247 0 11.1705 0 10.5002C0 9.82996 0.205277 9.17576 0.588217 8.62564C0.971156 8.07553 1.51339 7.65588 2.14197 7.42316C2.77055 7.19044 3.45533 7.15581 4.10418 7.32393C4.75303 7.49205 5.33483 7.85485 5.77132 8.36352L14.5885 4.26859C14.4882 3.94922 14.4373 3.61638 14.4376 3.28161ZM3.28154 8.53152C2.75941 8.53152 2.25866 8.73894 1.88945 9.10814C1.52024 9.47735 1.31283 9.9781 1.31283 10.5002C1.31283 11.0224 1.52024 11.5231 1.88945 11.8923C2.25866 12.2615 2.75941 12.469 3.28154 12.469C3.80368 12.469 4.30443 12.2615 4.67364 11.8923C5.04284 11.5231 5.25026 11.0224 5.25026 10.5002C5.25026 9.9781 5.04284 9.47735 4.67364 9.10814C4.30443 8.73894 3.80368 8.53152 3.28154 8.53152ZM17.7188 15.7502C17.1967 15.7502 16.6959 15.9576 16.3267 16.3268C15.9575 16.696 15.7501 17.1967 15.7501 17.7189C15.7501 18.241 15.9575 18.7418 16.3267 19.111C16.6959 19.4802 17.1967 19.6876 17.7188 19.6876C18.2409 19.6876 18.7417 19.4802 19.1109 19.111C19.4801 18.7418 19.6875 18.241 19.6875 17.7189C19.6875 17.1967 19.4801 16.696 19.1109 16.3268C18.7417 15.9576 18.2409 15.7502 17.7188 15.7502Z" fill="black"/>
</svg>
